<svg fill="currentColor" viewBox="0 0 330 128">
    <g filter="url(#a)">
        <rect fill="#161D22" height="121.111" rx="26" width="324" x="3" y="2"/>
        <path d="M165 33.25a4.625 4.625 0 1 0 0-9.25 4.625 4.625 0 0 0 0 9.25ZM165 61a4.625 4.625 0 1 0 0-9.25 4.625 4.625 0 0 0 0 9.25Z" stroke="#EFEFEF" stroke-linecap="round" stroke-linejoin="round" stroke-miterlimit="10"
              stroke-width="2"/>
        <path d="M151.125 33.25a4.625 4.625 0 1 0 0-9.25 4.625 4.625 0 0 0 0 9.25Zm27.75 0a4.625 4.625 0 1 0 0-9.25 4.625 4.625 0 0 0 0 9.25ZM151.125 61a4.625 4.625 0 1 0 0-9.25 4.625 4.625 0 0 0 0 9.25Zm27.75 0a4.625 4.625 0 1 0 0-9.25 4.625 4.625 0 0 0 0 9.25Z" fill="#EFEFEF" stroke="#EFEFEF" stroke-linecap="round" stroke-linejoin="round"
              stroke-miterlimit="10"
              stroke-width="2"/>
        <path d="M151.125 47.124a4.625 4.625 0 1 0 0-9.25 4.625 4.625 0 0 0 0 9.25Z" stroke="#EFEFEF" stroke-linecap="round" stroke-linejoin="round" stroke-miterlimit="10"
              stroke-width="2"/>
        <path d="M165 47.124a4.625 4.625 0 1 0 0-9.25 4.625 4.625 0 0 0 0 9.25Z" fill="#EFEFEF" stroke="#EFEFEF" stroke-linecap="round" stroke-linejoin="round"
              stroke-miterlimit="10" stroke-width="2"/>
        <path d="M178.875 47.124a4.625 4.625 0 1 0 0-9.25 4.625 4.625 0 0 0 0 9.25Zm-13.875 0v4.623m0-18.498v4.624m-10.604-5.979 7.334 7.334m13.875 13.875-7.335-7.336m7.339-13.87-7.335 7.334m-13.875 13.874 7.334-7.333m7.893-3.273h4.625m-18.501 0h4.626" stroke="#EFEFEF" stroke-linecap="round" stroke-linejoin="round" stroke-miterlimit="10"
              stroke-width="2"/>
        <path d="M93.386 105.111c2.16 0 4.236-.446 6.269-1.175v.85h6.734c.127 0 .212-.081.212-.202 0-.122-.085-.203-.212-.203-1.228 0-2.202-.972-2.202-2.146v-.486c2.922-1.782 5.591-4.01 7.836-6.238l.338-.365.212-.202.381-.446.212-.202.381-.405.212-.203.381-.445.17-.162.381-.446.127-.162.381-.445.466-.568.424-.566.423-.527c1.186-1.782 4.024-4.658 6.1-4.658 1.736 0 4.108 1.499 4.108 5.67v10.856c.002.277-.053.552-.163.808-.11.256-.273.489-.477.685a2.216 2.216 0 0 1-.717.457 2.278 2.278 0 0 1-.845.156c-.127 0-.212.121-.212.243 0 .121.085.202.212.202h8.937c.127 0 .254-.081.254-.202a.259.259 0 0 0-.08-.167.272.272 0 0 0-.174-.076 2.28 2.28 0 0 1-.846-.156 2.197 2.197 0 0 1-.717-.456 2.084 2.084 0 0 1-.477-.686 2.009 2.009 0 0 1-.163-.808V91.379s0-6.642-6.989-6.642c-3.897 0-6.565 2.876-7.751 4.455v-4.131h-6.735c-.127 0-.212.08-.212.202 0 .122.085.243.212.243 1.229 0 2.245.932 2.245 2.107v6.723c-2.372 2.39-5.04 4.699-7.836 6.481l-1.059.608-.084.04-1.102.608-1.016.486-.212.081-1.059.445c-1.821.648-3.685 1.053-5.548 1.053-2.16 0-4.66-1.498-4.66-5.67V85.06h-6.734c-.127 0-.212.08-.212.202 0 .122.085.243.212.243 1.228 0 2.245.932 2.245 2.107v10.855s-.297 6.643 8.43 6.643Zm8.217-4.577c.888-.427 1.75-.9 2.583-1.418V85.06h-6.734c-.127 0-.212.08-.212.202 0 .122.085.243.212.243.29-.002.577.052.845.157.268.105.512.26.717.456.205.196.367.429.477.685.11.257.165.531.163.809v11.786c0 .932 1.059 1.58 1.949 1.135Zm8.175 4.252h8.979c.127 0 .212-.081.212-.202 0-.122-.085-.243-.212-.243-1.228 0-2.245-.932-2.245-2.106v-7.25c0-.81-1.016-1.175-1.567-.568-.847 1.053-1.863 2.107-2.922 3.2v4.618c0 1.174-1.017 2.106-2.245 2.106-.127 0-.212.121-.212.243 0 .121.085.202.212.202Zm31.554-22.236a2.998 2.998 0 0 0 2.065-.821 2.741 2.741 0 0 0 .858-1.975c0-1.539-1.313-2.754-2.923-2.754-1.609 0-2.922 1.215-2.922 2.754.001.741.31 1.451.858 1.975.547.524 1.29.819 2.064.82Zm4.49 22.155c-1.228 0-2.245-.972-2.245-2.147V85.384h-6.734c-.127 0-.212.122-.212.203 0 .121.085.243.212.243 1.228 0 2.245.932 2.245 2.106v15.027a2.247 2.247 0 0 1-2.203 1.742c-.127 0-.212.081-.212.203 0 .121.085.202.212.202h8.937c.127 0 .212-.081.212-.202 0-.122-.085-.203-.212-.203Zm41.633 0c-1.228 0-2.202-.972-2.202-2.147V91.703s0-6.642-6.989-6.642c-4.151 0-6.904 3.28-7.963 4.739-.551-1.945-2.16-4.74-6.65-4.74-3.897 0-6.565 2.876-7.751 4.456v-4.131h-6.735c-.127 0-.211.121-.211.202 0 .122.084.243.211.243 1.229 0 2.245.932 2.245 2.106v14.622c0 1.175-1.016 2.147-2.245 2.147-.127 0-.211.081-.211.203 0 .121.084.202.211.202h8.98c.127 0 .212-.081.212-.202 0-.122-.085-.203-.212-.203-1.228 0-2.245-.972-2.245-2.147V90.691c1.144-1.782 4.024-4.658 6.099-4.658 1.694 0 4.109 1.498 4.109 5.67v10.855c0 1.175-.974 2.147-2.203 2.147-.127 0-.212.081-.212.203 0 .121.085.202.212.202h8.937c.127 0 .212-.081.212-.202 0-.122-.085-.203-.212-.203-1.228 0-2.202-.972-2.202-2.147V91.703s0-.405-.127-1.012c1.143-1.782 4.024-4.658 6.099-4.658 1.694 0 4.109 1.498 4.109 5.67v10.855c0 1.175-.975 2.147-2.203 2.147-.127 0-.212.081-.212.203 0 .121.085.202.212.202h8.937c.127 0 .254-.081.254-.202 0-.122-.127-.203-.254-.203Zm21.422.405c2.076 0 4.956-2.349 7.455-5.751l.212-.324.593-.891.466-.69.254-.445.466-.77.169-.364.381-.688.212-.446.339-.77.17-.364.381-.932.127-.324.339-.972.084-.283.297-.932v-.121c.085-.527.72-3.565 3.134-3.565 1.949 0 3.939 2.916 1.864 5.792 0 0 4.108 0 4.108-3.564s-4.023-3.645-4.023-3.645c-2.711 0-4.405 1.417-5.083 2.916v-2.592h-6.735c-.127 0-.211.08-.211.202 0 .122.084.243.211.243 1.229 0 2.245.932 2.245 2.106v9.802c-2.414 3.524-4.956 5.59-6.353 5.59-1.61 0-2.245-1.256-2.245-2.754v-8.425c0-3.93-2.076-7.007-9.149-7.007-4.871 0-7.37 2.592-7.37 4.9 0 1.216 1.101 3.079 3.346 3.079 2.118 0 2.88-1.985 2.88-1.985-1.016.324-2.414-.08-2.414-1.944 0-2.592 1.948-3.2 3.558-3.2 2.795 0 4.617 1.62 4.617 6.157v1.458c-9.107 1.337-12.58 2.39-12.58 6.683 0 3.929 3.516 4.82 5.591 4.82 4.363 0 6.989-3.321 6.989-4.901v.567c0 2.39 1.948 4.334 5.675 4.334Zm-10.546-2.025c-2.203 0-3.177-1.904-3.177-3.483 0-4.294 4.829-4.74 8.048-5.225v1.863c0 5.103-2.626 6.845-4.871 6.845Zm15.756 2.025h8.98c.127 0 .212-.081.212-.202 0-.122-.085-.243-.212-.243-1.229 0-2.245-.932-2.245-2.107V97.09c0-.89-1.271-1.174-1.694-.324a32.62 32.62 0 0 1-2.796 4.699v1.093c0 1.175-1.016 2.107-2.245 2.107-.127 0-.211.121-.211.243 0 .121.084.202.211.202Zm30.448-.973c-2.203 0-3.981-1.701-3.981-3.766V85.87h4.193v-.81h-4.193v-5.51h-.848c-.508 3.16-3.43 5.509-6.861 5.509v.81h3.219v12.354c-.001.904.185 1.8.546 2.636a6.871 6.871 0 0 0 1.561 2.234 7.225 7.225 0 0 0 2.337 1.493 7.49 7.49 0 0 0 2.756.523 7.28 7.28 0 0 0 4.236-1.337l-.381-.567a3.943 3.943 0 0 1-2.584.931Z"
              fill="#EFEFEF"/>
    </g>
    <defs>
        <filter color-interpolation-filters="sRGB" filterUnits="userSpaceOnUse" height="127.11" id="a" width="330" x="0"
                y="0">
            <feFlood flood-opacity="0" result="BackgroundImageFix"/>
            <feColorMatrix in="SourceAlpha" result="hardAlpha" values="0 0 0 0 0 0 0 0 0 0 0 0 0 0 0 0 0 0 127 0"/>
            <feMorphology in="SourceAlpha" radius="1" result="effect1_dropShadow_121_25816"/>
            <feOffset dy="1"/>
            <feGaussianBlur stdDeviation="1"/>
            <feColorMatrix values="0 0 0 0 0 0 0 0 0 0 0 0 0 0 0 0 0 0 0.1 0"/>
            <feBlend in2="BackgroundImageFix" result="effect1_dropShadow_121_25816"/>
            <feColorMatrix in="SourceAlpha" result="hardAlpha" values="0 0 0 0 0 0 0 0 0 0 0 0 0 0 0 0 0 0 127 0"/>
            <feOffset dy="1"/>
            <feGaussianBlur stdDeviation="1.5"/>
            <feColorMatrix values="0 0 0 0 0 0 0 0 0 0 0 0 0 0 0 0 0 0 0.1 0"/>
            <feBlend in2="effect1_dropShadow_121_25816" result="effect2_dropShadow_121_25816"/>
            <feBlend in="SourceGraphic" in2="effect2_dropShadow_121_25816" result="shape"/>
        </filter>
    </defs>
</svg>
