<svg fill="none" viewBox="0 0 16 16">
    <path d="M1.355 7.953c-.01-3.518 2.782-6.445 6.322-6.612L2.08 10.93a6.532 6.532 0 0 1-.724-2.976Zm0 0Zm.943-.02a5.58 5.58 0 0 0 .621 2.574l.15.29-.398 1.915-.16.768.764-.18 1.883-.443.306.152a5.68 5.68 0 0 0 2.538.59 5.69 5.69 0 0 0 3.18-.96v.148l.852-.845a5.657 5.657 0 0 0 1.673-4.009m-11.409 0v-.001l.5.001h-.5Zm0 0c0-1.514.595-2.94 1.672-4.008a5.733 5.733 0 0 1 4.032-1.659c1.522 0 2.955.589 4.032 1.658a5.614 5.614 0 0 1 1.673 4.01m0 0v-.001h-.5.5ZM7.7 1.84l.094-.005c3.56-.116 6.462 2.768 6.35 6.292-.103 3.313-2.89 5.954-6.239 5.903a6.155 6.155 0 0 1-2.642-.636l-.16-.08-.176.041-2.988.703.628-3.028.036-.173-.08-.157a6.032 6.032 0 0 1-.669-2.75C1.844 4.702 4.425 1.994 7.7 1.84Z" fill="#EFEFEF"
          stroke="#EFEFEF"/>
    <path d="m11.228 9.363-1.287-.366a.482.482 0 0 0-.476.124l-.314.318a.471.471 0 0 1-.51.107c-.609-.245-1.89-1.375-2.218-1.941a.463.463 0 0 1 .038-.516l.274-.354a.473.473 0 0 0 .06-.484l-.542-1.216a.482.482 0 0 0-.75-.17c-.359.302-.786.76-.837 1.268-.091.896.295 2.024 1.758 3.38 1.69 1.566 3.044 1.774 3.925 1.561.5-.12.9-.602 1.151-.996a.477.477 0 0 0-.272-.715Z"
          fill="#EFEFEF"/>
</svg>
